Patient4_TMGait_0pt4_01_right_18_EMG.mot
version=1
nRows=36
nColumns=33
inDegrees=no
endheader
time	1LAddLong	2LGlutMax	3LGlutMed	4LIliopsoas	5LSemiMemb	6LBicFemLong	7LRecFem	8LVastMed	9LVastLat	10LGasMed	11LTibAnt	12lTibPost	13LPeroneusLong	14LSol	15LExtDigLong	16LFlexDigLong	17RAddLong	18RGlutMax	19RGlutMed	20RIliopsoas	21RSemiMemb	22RBicFemLong	23RRecFem	24RVastMed	25RVastLat	26RGasMed	27RTibAnt	28RTibPost	29RPeroneusLong	30RSol	31RExtDigLong	32RFlexDigLong
23.31	0.002441	0.003967	0.074768	0.010071	-0.013275	0.31982	0.099792	0.020142	0.01236	0.25787	-0.011749	-0.035858	-0.032959	0.20081	-0.058136	-0.020905	0.001831	0.061035	-0.05661	-0.089264	0.050201	-0.061646	0.1091	-0.052643	0.022278	-0.005798	-0.233	0.000458	-0.054932	0.050049	-0.001373	-0.005493
23.311	0.009613	-0.010681	0.028534	0.021973	-0.016022	0.2214	0.10513	0.002441	0.001068	0.00824	-0.012665	-0.047913	-0.019531	0.32776	-0.015106	-0.026245	0.013275	0.060272	0.07309	-0.09079	0.053711	-0.059509	0.10742	-0.026093	0.02533	0.002441	0.28458	0.000305	-0.1831	0	-0.003204	0.001221
23.312	0.006409	0.01709	-0.003662	0.002747	0.005188	0.19455	0.10727	-0.005798	-0.017853	-0.071869	-0.014343	-0.11993	-0.072174	0.6459	0.009003	-0.093079	0.005341	0.032654	0.044556	0.007477	0.057678	-0.044556	-0.00946	-0.07019	0.019226	0.009308	0.35172	0.002747	-0.14938	-0.11185	-0.000763	0.000458
23.313	0.003967	0.005035	0.054932	-0.023499	0.044098	0.18005	0.11871	-0.007172	-0.014038	-0.32242	-0.007324	0.001526	0.21454	0.1506	0.025024	-0.006561	0.006714	0.031281	-0.028687	0.06424	0.050049	-0.041046	-0.073853	-0.066223	0.002441	-0.002441	0.28122	0.005646	0.13947	-0.16037	-0.005798	0
23.314	0.012665	0.006409	0.079193	-0.003052	0.026093	0.11475	0.10239	-0.006256	-0.014496	-0.62515	-0.006866	0.20554	-0.034637	-0.46066	0.050354	0.054474	0.053253	0.013123	-0.12299	0.066223	0.058136	-0.039063	-0.044403	-0.054169	-0.00946	-0.007172	-0.005035	0.001221	0.14771	-0.10193	-0.005188	-0.004578
23.315	0.009918	0.003357	0.031738	-0.006866	-0.001068	0.023499	0.099945	-0.005951	-0.022125	-0.67047	0.009613	0.22186	-0.30701	-0.56915	0.025787	0.031281	0.085297	-0.040131	-0.13168	0.037384	0.050354	-0.043182	-0.050354	-0.032196	-0.024872	-0.006714	-0.71304	-0.001678	-0.059052	-0.019531	-0.002289	-0.004272
23.316	0.005341	-0.013733	0.037079	-0.014801	-0.002747	-0.121	0.098877	0.000153	-0.022583	-0.72372	-0.009003	-0.23972	-0.03479	-0.23605	-0.013733	0.004272	0.16159	-0.028687	-0.13672	-0.024567	0.056915	-0.049133	0.074463	0.023041	-0.009155	-0.013428	-0.33691	-0.000153	-0.16007	0.098114	-0.008392	-0.009155
23.317	0.002594	0.002136	0.034943	-0.018311	-0.010071	-0.27802	0.091095	0.000916	-0.036774	-0.69046	0.001221	-0.14587	-0.19592	0.022736	-0.001984	-0.027466	0.13901	-0.060272	-0.1207	-0.032959	0.060425	-0.053406	0.21988	0.058899	-0.010223	0.004425	-0.002899	-0.005798	-0.006714	0.215	-0.003662	-0.003052
23.318	0.007019	0.018463	0.012207	-0.01709	-0.02121	-0.28015	0.069733	0.001678	-0.053711	-0.31158	0.028839	-0.046234	-0.40329	0.0914	-0.008087	-0.041351	0.10941	-0.10223	-0.11627	-0.007019	0.046082	-0.047455	0.26382	0.13855	0.003204	0.007477	-0.12421	-0.001984	0.1683	0.22705	-0.001678	0.001678
23.319	0.01358	0.03006	0.021515	0.000916	0.001373	-0.15472	0.10742	-0.001068	-0.058136	0.042572	-0.021515	0.059662	-0.075073	0.23468	0.020599	-0.029907	0.056305	-0.12421	-0.10941	0.11566	0.043945	-0.046844	0.1973	0.12039	0.000763	0.011292	-0.33829	0.000153	0.17075	0.15091	-0.002441	-0.002136
23.32	0.005646	-0.000763	0.035248	0.005493	0.011444	0.056458	0.10666	-0.004578	-0.057831	0.55069	-0.032349	0.019379	-0.085602	0.042572	-0.039978	0.036316	0.005188	-0.11078	-0.10071	0.25162	0.05249	-0.037384	0.14526	0.075073	0.006409	0.004272	0.39352	-0.001068	-0.1265	0.10178	-0.003967	-0.011444
23.321	0.00473	-0.001984	-0.059509	0.021515	-0.011902	0.15579	0.094147	-0.00473	-0.036621	0.47363	-0.018616	-0.010071	0.021362	0.12894	0.016479	-0.10773	-0.012665	-0.16525	-0.01358	0.30823	0.059357	-0.02533	0.10132	-0.007782	-0.003357	-0.000916	0.52994	-0.001831	-0.013123	0.067596	-0.001221	-0.005035
23.322	0.005951	-0.015411	-0.012054	0.003052	-0.039978	0.13702	0.072021	0	-0.020142	0.41611	-0.030823	-0.024261	0.42847	0.11963	0.066986	0.044861	-0.009003	-0.12314	-0.008392	0.30823	0.066833	-0.037689	0.068817	-0.037842	-0.005646	-0.007019	0.15137	-0.010529	0.11108	0.12619	0	-0.009155
23.323	0.007019	0.003967	0.066071	0.007629	-0.025024	0.103	0.10513	0.003967	0.018768	0.45929	0.004883	-0.015869	0.20554	-0.076294	-0.011597	0.036621	-0.020142	-0.1358	-0.08667	0.26367	0.079346	-0.026245	0.080261	-0.033875	-0.007477	-0.021057	0.074005	-0.003204	0.16678	0.20187	0	-0.009308
23.324	0.00885	0.053711	0.13901	0.017548	0.024567	0.076294	0.095062	0.009918	0.025482	0.19073	0.014191	-0.010529	-0.12238	-0.12451	-0.039978	0.067749	-0.040741	-0.11353	0.009766	0.13168	0.086823	-0.025635	0.10361	-0.018768	-0.000153	-0.010071	0.12909	-0.001373	0.095215	0.10574	-0.006104	-0.007019
23.325	0.001373	-0.023193	0.159	0.000305	0.014954	0.11917	0.12604	0.003357	-0.015106	-0.20325	0.010071	-0.00824	0.16602	-0.070801	-0.095673	0.095367	-0.068054	-0.12894	-0.028076	-0.010986	0.090637	-0.001526	0.12634	-0.014191	-0.009155	-0.004425	0.21469	0.002136	0.014038	0.042419	-0.002136	0
23.326	0.000305	-0.033264	0.15533	0.011139	-0.016174	0.081329	0.1207	0.005798	-0.049438	-0.3418	-0.002899	0.002289	0.009613	-0.063934	-0.064392	0.003357	-0.065918	-0.16281	0.043335	-0.13748	0.089264	-0.022278	0.11078	-0.018005	-0.004425	-0.00412	-0.10971	0.000763	0.017853	-0.001984	-0.001068	-0.001373
23.327	-0.00824	-0.037079	0.14481	-0.006561	-0.03891	0.15671	0.063782	-0.001678	-0.00824	-0.005798	-0.017853	0.001984	0.39734	-0.086517	0.03952	-0.009918	-0.072632	-0.20905	0.16312	-0.17273	0.094299	-0.033417	0.11795	-0.001984	0.00824	0.003815	-0.42419	-0.000305	0.044861	-0.031281	0	-0.001984
23.328	-0.007172	-0.059052	0.08316	-0.000916	-0.037689	0.18295	0.050354	0.007935	-0.058441	-0.37933	-0.022888	0.006866	0.59326	-0.11963	0.083618	-0.011902	-0.082397	-0.18784	0.24109	-0.080566	0.097504	-0.017242	0.091095	0.030975	0.007172	-0.007019	-0.61569	0.001068	0.06073	0.02182	-0.003052	-0.005951
23.329	-0.014801	-0.010529	0.035858	-0.003815	0.013428	0.16129	0.060883	0.010529	-0.059357	-0.5629	-0.026245	0.005035	0.86441	0.10529	0.11261	0.006714	-0.071259	-0.12787	0.29831	-0.036011	0.10925	-0.021667	0.24567	0.075531	-0.000305	-0.006256	-0.58579	0.007019	0.11826	0.045624	-0.005798	-0.004883
23.33	-0.010681	-0.025635	0.013275	0.012512	0.023193	0.16266	0.04837	0.007935	-0.031433	-0.3923	-0.020294	0.001831	0.48172	0.27771	0.003204	0.000763	-0.065918	-0.11414	0.33295	0.088196	0.097809	-0.017395	0.29678	0.10819	0.006409	-0.010529	-0.392	0.001221	-0.013885	-0.057068	-0.004272	0
23.331	-0.012512	-0.030365	-0.047302	0.009613	0.008545	0.13504	0.029907	0.008392	-0.065765	-0.21316	-0.003204	-0.00351	-0.51315	0.32455	-0.040131	-0.017853	-0.049286	-0.19257	0.33157	0.13153	0.10223	-0.016937	0.2887	0.075226	0.018158	-0.006561	-0.14053	0.005646	-0.030212	-0.047607	-0.001678	-0.007629
23.332	-0.003052	0.042267	0.020905	0.012512	-0.003052	0.013733	0.056915	-0.002441	-0.012665	-0.21622	-0.047302	-0.00885	-0.71335	0.29205	-0.004272	0.001831	-0.025024	-0.19501	-0.345	0.14282	0.096436	-0.01709	0.28046	0.11032	0.024414	0.004883	-0.021057	0.004578	0.11704	-0.063019	-0.006866	-0.005798
23.333	0.013885	0.047607	0.13184	0.009918	-0.010376	0.037384	0.089417	-0.003815	0.044098	-0.19974	-0.043335	0.002136	0.095062	0.15747	-0.16983	-0.00885	-0.016174	-0.12741	-0.69488	0.13397	0.085297	-0.037994	0.17212	0.061188	0.014343	0.011597	0.51331	0.006714	0.11444	-0.10651	-0.002747	-0.010376
23.334	0.010223	0.023499	0.10788	0.009918	-0.013733	0.079193	0.11932	0.006409	0.043793	-0.13245	0.049286	-0.001526	0.033417	0.089569	-0.15274	-0.010223	-0.010223	-0.12299	-0.61035	0.037994	0.08667	-0.039978	0.18265	0.026855	-0.000458	0.007629	0.47058	0.011597	0.13214	-0.10208	-0.001984	-0.013275
23.335	0.012207	0.0383	0.15701	-0.002136	-0.036316	0.2301	0.080109	0.000763	0.005646	-0.053406	0.058899	-0.015106	0.064697	0.018463	-0.067444	-0.003052	-0.009155	-0.12528	-0.51926	-0.043488	0.093231	-0.033722	0.18173	-0.005798	0.003204	-0.008087	0.40375	0.017548	0.02121	-0.04303	-0.004578	-0.01709
23.336	-0.005646	0.031281	0.049591	-0.020447	-0.080566	0.22324	0.071411	0.007172	-0.002136	-0.034485	-0.036316	-0.003967	-0.018921	-0.024109	0.001373	-0.001526	-0.007324	-0.12634	-0.36057	-0.1091	0.090027	-0.032654	0.15396	-0.013275	-0.014496	-0.00473	-0.036469	0.007935	0.27008	-0.005341	-0.006104	-0.013733
23.337	-0.009766	0.006714	0.11307	-0.020905	-0.099182	0.009613	0.062866	0.006714	0.069122	0.063171	-0.014038	-0.000763	0.3891	-0.025024	0.076752	0.00412	-0.000153	-0.096741	-0.27039	-0.06546	0.076752	-0.030975	0.19623	-0.010986	-0.032349	0.000763	-0.33951	0.01236	0.028534	-0.046387	-0.001526	-0.018616
23.338	-0.006256	0.061493	0.070343	-0.013275	-0.12436	-0.037079	0.032806	0.00412	0.15076	0.12878	0.062866	-0.005341	0.30151	-0.007324	0.11704	-0.005188	0.001678	-0.10239	-0.17914	0.082855	0.087433	-0.029449	0.19608	0.023346	-0.007019	-0.000458	-0.34286	0.010986	-0.5513	-0.034943	-0.002441	-0.016327
23.339	0.012665	0.054474	-0.061951	-0.013428	0.039978	-0.27359	0.030975	-0.004883	0.15335	0.23331	0.067596	0.00061	-0.81024	0.035553	0.025787	-0.002747	0.00351	-0.11566	-0.14145	0.098877	0.0914	-0.025787	0.15396	0.006714	-0.006409	0.006104	-0.32013	0.010376	-0.49728	-0.020447	-0.002747	-0.018768
23.34	0.014496	0.041199	-0.086975	-0.006561	0.057373	-0.39642	0.046844	0.001526	0.14496	0.12161	0.027618	0.005798	-1.0425	0.14282	0.092163	0.021515	0.003204	-0.09552	-0.12955	-0.034027	0.080414	-0.012054	0.14084	0.011597	-0.001373	-0.009003	-0.32425	0.010071	0.4158	0.070801	0.000916	-0.018616
23.341	0.009613	-0.023956	-0.011139	0.004578	0.077667	-0.31265	0.027008	0.006866	0.10986	-0.09613	0.000916	-0.010223	-0.66666	0.10696	-0.013733	-0.001984	0.006409	-0.16983	-0.11978	-0.22537	0.086212	-0.018768	0.1297	-0.018616	-0.010223	-0.00412	-0.21103	0.010681	1.4656	-0.036469	-0.000458	-0.013428
23.342	0.006714	-0.06424	0.061493	0.003815	0.062408	-0.16159	0.005341	0.014038	0.027313	-0.015259	0.008087	-0.000763	0.23712	-0.037842	-0.1236	-0.021057	0.007782	-0.18631	-0.10971	-0.2652	0.084991	-0.021515	0.12009	-0.033417	-0.019226	0.001221	0.052948	0.008545	0.90653	-0.19302	0.007019	-0.010223
23.343	-0.005341	-0.088043	0.087891	0.012817	0.028076	0.012207	0.073242	0.02594	-0.22186	0.39673	-0.013733	0.002441	0.48569	0.068817	-0.040283	-0.014496	0.024567	-0.22507	-0.098114	-0.19424	0.070648	-0.021515	0.063019	-0.018768	0.009003	0.006714	0.48599	0.009613	0.25772	-0.26352	0.001831	-0.004883
23.344	-0.012054	-0.024414	0.047913	-0.000763	0.000916	0.13718	0.094604	0.023041	-0.45868	0.23132	0.017548	-0.004883	0.30441	0.012512	0.043488	0.005341	0.022125	-0.16037	-0.10849	-0.090027	0.080414	-0.034637	0.044556	-0.032806	0.010529	0.006104	0.59082	0.010223	-0.66925	-0.18814	-0.002899	0.000458
23.345	-0.026703	-0.020447	0.067291	0.003357	-0.012207	0.29388	0.053253	0.020447	-0.33676	-0.62042	-0.055542	-0.004578	0.084076	-0.025024	0.043335	0.012207	0.032349	-0.17487	-0.083618	0.089264	0.079651	-0.02655	0.06012	-0.031586	0.02121	0.00824	0.8017	0.005035	-0.86914	-0.14694	-0.001831	-0.001221
